<?xml version="1.0" encoding="UTF-8"?>
<svg xmlns="http://www.w3.org/2000/svg" xmlns:xlink="http://www.w3.org/1999/xlink" width="453.677795pt" height="246.477219pt" viewBox="0 0 453.677795 246.477219" version="1.1">
<defs>
<clipPath id="clip1">
  <path d="M 236 0 L 424.265625 0 L 424.265625 58 L 236 58 Z M 236 0 "/>
</clipPath>
<clipPath id="clip2">
  <path d="M 225 0 L 424.265625 0 L 424.265625 69 L 225 69 Z M 225 0 "/>
</clipPath>
<clipPath id="clip3">
  <path d="M 236 171 L 424.265625 171 L 424.265625 246.476562 L 236 246.476562 Z M 236 171 "/>
</clipPath>
<clipPath id="clip4">
  <path d="M 225 160 L 424.265625 160 L 424.265625 246.476562 L 225 246.476562 Z M 225 160 "/>
</clipPath>
<clipPath id="clip5">
  <path d="M 0 171 L 186 171 L 186 246.476562 L 0 246.476562 Z M 0 171 "/>
</clipPath>
<clipPath id="clip6">
  <path d="M 0 160 L 198 160 L 198 246.476562 L 0 246.476562 Z M 0 160 "/>
</clipPath>
<clipPath id="clip7">
  <path d="M 236 88 L 424.265625 88 L 424.265625 142 L 236 142 Z M 236 88 "/>
</clipPath>
<clipPath id="clip8">
  <path d="M 427 27 L 453.679688 27 L 453.679688 73 L 427 73 Z M 427 27 "/>
</clipPath>
</defs>
<g id="surface1">
<g clip-path="url(#clip1)" clip-rule="nonzero">
<path style=" stroke:none;fill-rule:nonzero;fill:rgb(100%,100%,100%);fill-opacity:1;" d="M 236.773438 -68.4375 L 236.773438 39.5625 C 236.773438 49.535156 244.800781 57.5625 254.773438 57.5625 L 434.773438 57.5625 C 444.742188 57.5625 452.773438 49.535156 452.773438 39.5625 L 452.773438 -68.4375 C 452.773438 -78.410156 444.742188 -86.4375 434.773438 -86.4375 L 254.773438 -86.4375 C 244.800781 -86.4375 236.773438 -78.410156 236.773438 -68.4375 Z M 236.773438 -68.4375 "/>
</g>
<g clip-path="url(#clip2)" clip-rule="nonzero">
<path style="fill:none;stroke-width:2;stroke-linecap:butt;stroke-linejoin:miter;stroke:rgb(0%,0%,0%);stroke-opacity:1;stroke-miterlimit:4;" d="M -68.4375 236.773438 L 39.5625 236.773438 C 49.535156 236.773438 57.5625 244.800781 57.5625 254.773438 L 57.5625 434.773438 C 57.5625 444.742188 49.535156 452.773438 39.5625 452.773438 L -68.4375 452.773438 C -78.410156 452.773438 -86.4375 444.742188 -86.4375 434.773438 L -86.4375 254.773438 C -86.4375 244.800781 -78.410156 236.773438 -68.4375 236.773438 Z M -68.4375 236.773438 " transform="matrix(0,1,1,0,0,0.000000000000028422)"/>
</g>
<g clip-path="url(#clip3)" clip-rule="nonzero">
<path style=" stroke:none;fill-rule:nonzero;fill:rgb(100%,100%,100%);fill-opacity:1;" d="M 236.773438 189.691406 L 236.773438 297.691406 C 236.773438 307.664062 244.800781 315.691406 254.773438 315.691406 L 434.773438 315.691406 C 444.742188 315.691406 452.773438 307.664062 452.773438 297.691406 L 452.773438 189.691406 C 452.773438 179.71875 444.742188 171.691406 434.773438 171.691406 L 254.773438 171.691406 C 244.800781 171.691406 236.773438 179.71875 236.773438 189.691406 Z M 236.773438 189.691406 "/>
</g>
<g clip-path="url(#clip4)" clip-rule="nonzero">
<path style="fill:none;stroke-width:2;stroke-linecap:butt;stroke-linejoin:miter;stroke:rgb(0%,0%,0%);stroke-opacity:1;stroke-miterlimit:4;" d="M 189.691406 236.773438 L 297.691406 236.773438 C 307.664062 236.773438 315.691406 244.800781 315.691406 254.773438 L 315.691406 434.773438 C 315.691406 444.742188 307.664062 452.773438 297.691406 452.773438 L 189.691406 452.773438 C 179.71875 452.773438 171.691406 444.742188 171.691406 434.773438 L 171.691406 254.773438 C 171.691406 244.800781 179.71875 236.773438 189.691406 236.773438 Z M 189.691406 236.773438 " transform="matrix(0,1,1,0,0,0.000000000000028422)"/>
</g>
<path style="fill-rule:nonzero;fill:rgb(100%,100%,100%);fill-opacity:1;stroke-width:2;stroke-linecap:butt;stroke-linejoin:miter;stroke:rgb(0%,0%,0%);stroke-opacity:1;stroke-miterlimit:4;" d="M -68.4375 -185.867188 L 39.5625 -185.867188 C 49.535156 -185.867188 57.5625 -177.839844 57.5625 -167.867188 L 57.5625 12.132812 C 57.5625 22.105469 49.535156 30.132812 39.5625 30.132812 L -68.4375 30.132812 C -78.410156 30.132812 -86.4375 22.105469 -86.4375 12.132812 L -86.4375 -167.867188 C -86.4375 -177.839844 -78.410156 -185.867188 -68.4375 -185.867188 Z M -68.4375 -185.867188 " transform="matrix(0,1,-1,0,0,0.000000000000028422)"/>
<g clip-path="url(#clip5)" clip-rule="nonzero">
<path style=" stroke:none;fill-rule:nonzero;fill:rgb(100%,100%,100%);fill-opacity:1;" d="M 185.867188 189.691406 L 185.867188 297.691406 C 185.867188 307.664062 177.839844 315.691406 167.867188 315.691406 L -12.132812 315.691406 C -22.105469 315.691406 -30.132812 307.664062 -30.132812 297.691406 L -30.132812 189.691406 C -30.132812 179.71875 -22.105469 171.691406 -12.132812 171.691406 L 167.867188 171.691406 C 177.839844 171.691406 185.867188 179.71875 185.867188 189.691406 Z M 185.867188 189.691406 "/>
</g>
<g clip-path="url(#clip6)" clip-rule="nonzero">
<path style="fill:none;stroke-width:2;stroke-linecap:butt;stroke-linejoin:miter;stroke:rgb(0%,0%,0%);stroke-opacity:1;stroke-miterlimit:4;" d="M 189.691406 -185.867188 L 297.691406 -185.867188 C 307.664062 -185.867188 315.691406 -177.839844 315.691406 -167.867188 L 315.691406 12.132812 C 315.691406 22.105469 307.664062 30.132812 297.691406 30.132812 L 189.691406 30.132812 C 179.71875 30.132812 171.691406 22.105469 171.691406 12.132812 L 171.691406 -167.867188 C 171.691406 -177.839844 179.71875 -185.867188 189.691406 -185.867188 Z M 189.691406 -185.867188 " transform="matrix(0,1,-1,0,0,0.000000000000028422)"/>
</g>
<path style="fill-rule:nonzero;fill:rgb(100%,100%,100%);fill-opacity:1;stroke-width:2;stroke-linecap:butt;stroke-linejoin:miter;stroke:rgb(0%,0%,0%);stroke-opacity:1;stroke-miterlimit:4;" d="M 105.839844 -115.425781 L 123.839844 -115.425781 L 123.839844 -151.425781 L 105.839844 -151.425781 Z M 105.839844 -115.425781 " transform="matrix(0,1,-1,0,0,0.000000000000028422)"/>
<path style="fill-rule:nonzero;fill:rgb(100%,100%,100%);fill-opacity:1;stroke-width:2;stroke-linecap:butt;stroke-linejoin:miter;stroke:rgb(0%,0%,0%);stroke-opacity:1;stroke-miterlimit:4;" d="M 137.332031 -107.445312 L 155.332031 -107.445312 L 155.332031 -143.445312 L 137.332031 -143.445312 Z M 137.332031 -107.445312 " transform="matrix(0,1,-1,0,0,0.000000000000028422)"/>
<path style="fill:none;stroke-width:1.8;stroke-linecap:butt;stroke-linejoin:miter;stroke:rgb(0%,0%,0%);stroke-opacity:1;stroke-miterlimit:4;" d="M 130.589844 -166.503906 L 130.589844 -105.898438 " transform="matrix(0,1,-1,0,0,0.000000000000028422)"/>
<path style="fill-rule:nonzero;fill:rgb(100%,100%,100%);fill-opacity:1;stroke-width:2;stroke-linecap:butt;stroke-linejoin:miter;stroke:rgb(0%,0%,0%);stroke-opacity:1;stroke-miterlimit:4;" d="M 201.964844 203.78125 L 219.964844 203.78125 L 219.964844 239.78125 L 201.964844 239.78125 Z M 201.964844 203.78125 " transform="matrix(1,0,0,1,0,0.000000000000028422)"/>
<path style="fill-rule:nonzero;fill:rgb(100%,100%,100%);fill-opacity:1;stroke-width:2;stroke-linecap:butt;stroke-linejoin:miter;stroke:rgb(0%,0%,0%);stroke-opacity:1;stroke-miterlimit:4;" d="M -74.347656 280.890625 L -92.347656 280.890625 L -92.347656 316.890625 L -74.347656 316.890625 Z M -74.347656 280.890625 " transform="matrix(0,-1,1,0,0,0.000000000000028422)"/>
<path style="fill:none;stroke-width:3.6;stroke-linecap:butt;stroke-linejoin:miter;stroke:rgb(0%,0%,100%);stroke-opacity:1;stroke-miterlimit:4;" d="M 192.300781 -211.777344 L 42.863281 -211.777344 " transform="matrix(0,1,-1,0,0,0.000000000000028422)"/>
<path style="fill-rule:evenodd;fill:rgb(0%,0%,100%);fill-opacity:1;stroke-width:0.9;stroke-linecap:butt;stroke-linejoin:miter;stroke:rgb(0%,0%,100%);stroke-opacity:1;stroke-miterlimit:4;" d="M 47.183594 -211.777344 L 50.78125 -215.375 L 38.183594 -211.777344 L 50.78125 -208.175781 Z M 47.183594 -211.777344 " transform="matrix(0,1,-1,0,0,0.000000000000028422)"/>
<path style="fill:none;stroke-width:3.6;stroke-linecap:butt;stroke-linejoin:miter;stroke:rgb(0%,0%,100%);stroke-opacity:1;stroke-miterlimit:4;" d="M 192.300781 -217.386719 C 192.300781 -217.386719 152.808594 -216.203125 153.617187 -254.992188 " transform="matrix(0,1,-1,0,0,0.000000000000028422)"/>
<path style="fill-rule:evenodd;fill:rgb(0%,0%,100%);fill-opacity:1;stroke-width:0.899805;stroke-linecap:butt;stroke-linejoin:miter;stroke:rgb(0%,0%,100%);stroke-opacity:1;stroke-miterlimit:4;" d="M -253.760218 -148.240681 L -250.159404 -151.839135 L -262.760218 -148.240681 L -250.161763 -144.639867 Z M -253.760218 -148.240681 " transform="matrix(-1,-0.0208333,0.0208333,-1,0,0.000000000000028422)"/>
<path style="fill:none;stroke-width:3.6;stroke-linecap:butt;stroke-linejoin:miter;stroke:rgb(0%,0%,100%);stroke-opacity:1;stroke-miterlimit:4;" d="M 192.332031 -206.40625 C 118.683594 -206.40625 88.894531 -211.117188 88.894531 -173.945312 " transform="matrix(0,1,-1,0,0,0.000000000000028422)"/>
<path style="fill-rule:evenodd;fill:rgb(0%,0%,100%);fill-opacity:1;stroke-width:0.9;stroke-linecap:butt;stroke-linejoin:miter;stroke:rgb(0%,0%,100%);stroke-opacity:1;stroke-miterlimit:4;" d="M 178.261719 88.894531 L 181.863281 85.292969 L 169.261719 88.894531 L 181.863281 92.492187 Z M 178.261719 88.894531 " transform="matrix(1,0,0,1,0,0.000000000000028422)"/>
<path style="fill:none;stroke-width:3.6;stroke-linecap:butt;stroke-linejoin:miter;stroke:rgb(100%,0%,0%);stroke-opacity:1;stroke-miterlimit:4;" d="M -81.890625 260.679688 L -81.890625 173.425781 " transform="matrix(0,-1,1,0,0,0.000000000000028422)"/>
<path style="fill-rule:evenodd;fill:rgb(100%,0%,0%);fill-opacity:1;stroke-width:0.9;stroke-linecap:butt;stroke-linejoin:miter;stroke:rgb(100%,0%,0%);stroke-opacity:1;stroke-miterlimit:4;" d="M 177.746094 81.890625 L 181.347656 78.289062 L 168.746094 81.890625 L 181.347656 85.488281 Z M 177.746094 81.890625 " transform="matrix(1,0,0,1,0,0.000000000000028422)"/>
<path style="fill:none;stroke-width:3.6;stroke-linecap:butt;stroke-linejoin:miter;stroke:rgb(100%,0%,0%);stroke-opacity:1;stroke-miterlimit:4;" d="M -76.28125 260.679688 C -76.28125 245.539062 -75.75 220.722656 -42.960937 220.675781 " transform="matrix(0,-1,1,0,0,0.000000000000028422)"/>
<path style="fill-rule:evenodd;fill:rgb(100%,0%,0%);fill-opacity:1;stroke-width:0.899999;stroke-linecap:butt;stroke-linejoin:miter;stroke:rgb(100%,0%,0%);stroke-opacity:1;stroke-miterlimit:4;" d="M 47.611082 -220.608504 L 51.210214 -224.208592 L 38.611084 -220.610241 L 51.211169 -217.009372 Z M 47.611082 -220.608504 " transform="matrix(0.0014951,1,-1,0.0014951,0,0.000000000000028422)"/>
<path style="fill:none;stroke-width:3.6;stroke-linecap:butt;stroke-linejoin:miter;stroke:rgb(50.195312%,0%,50.195312%);stroke-opacity:1;stroke-miterlimit:4;" d="M 146.285156 -168.039062 L 146.285156 -254.683594 " transform="matrix(0,1,-1,0,0,0.000000000000028422)"/>
<path style="fill-rule:evenodd;fill:rgb(50.195312%,0%,50.195312%);fill-opacity:1;stroke-width:0.9;stroke-linecap:butt;stroke-linejoin:miter;stroke:rgb(50.195312%,0%,50.195312%);stroke-opacity:1;stroke-miterlimit:4;" d="M -250.363281 -146.285156 L -246.761719 -149.886719 L -259.363281 -146.285156 L -246.761719 -142.6875 Z M -250.363281 -146.285156 " transform="matrix(-1,0,0,-1,0,0.000000000000028422)"/>
<g clip-path="url(#clip7)" clip-rule="nonzero">
<path style="fill:none;stroke-width:1.8;stroke-linecap:butt;stroke-linejoin:miter;stroke:rgb(0%,0%,0%);stroke-opacity:1;stroke-miterlimit:4;" d="M 116.363281 -451.824219 L 116.363281 -396.226562 C 116.363281 -358.109375 131.089844 -346.300781 131.089844 -305.898438 C 131.089844 -305.898438 131.945312 -286.800781 131.089844 -264.226562 C 130.230469 -241.65625 99.050781 -239.941406 98.761719 -264.226562 C 98.476562 -288.511719 98.761719 -305.898438 98.761719 -305.898438 C 98.761719 -346.300781 113.488281 -358.109375 113.488281 -396.226562 L 113.488281 -451.824219 " transform="matrix(0,1,-1,0,0,0.000000000000028422)"/>
</g>
<path style="fill:none;stroke-width:3.6;stroke-linecap:butt;stroke-linejoin:miter;stroke:rgb(50.195312%,0%,50.195312%);stroke-opacity:1;stroke-miterlimit:4;" d="M 115.691406 -167.894531 C 115.691406 -204.371094 80.566406 -203.632812 43.394531 -203.632812 " transform="matrix(0,1,-1,0,0,0.000000000000028422)"/>
<path style="fill-rule:evenodd;fill:rgb(50.195312%,0%,50.195312%);fill-opacity:1;stroke-width:0.9;stroke-linecap:butt;stroke-linejoin:miter;stroke:rgb(50.195312%,0%,50.195312%);stroke-opacity:1;stroke-miterlimit:4;" d="M 47.714844 -203.632812 L 51.3125 -207.234375 L 38.714844 -203.632812 L 51.3125 -200.03125 Z M 47.714844 -203.632812 " transform="matrix(0,1,-1,0,0,0.000000000000028422)"/>
<path style="fill:none;stroke-width:1.8;stroke-linecap:butt;stroke-linejoin:miter;stroke:rgb(0%,0%,0%);stroke-opacity:1;stroke-dasharray:10.8,10.8;stroke-dashoffset:14.4;stroke-miterlimit:4;" d="M 130.589844 -105.707031 L 130.589844 -67.320312 " transform="matrix(0,1,-1,0,0,0.000000000000028422)"/>
<path style="fill:none;stroke-width:1.8;stroke-linecap:butt;stroke-linejoin:miter;stroke:rgb(0%,0%,0%);stroke-opacity:1;stroke-miterlimit:4;" d="M 114.539062 -372.273438 C 110.0625 -350.363281 100.960937 -329.152344 102.027344 -306.425781 C 101.984375 -290.320312 101.058594 -274.035156 102.820312 -258.058594 C 105.53125 -249.472656 118.035156 -246.996094 123.855469 -253.910156 C 130.097656 -261.261719 127.535156 -271.691406 128.210937 -280.511719 C 128.417969 -304.597656 128.410156 -329.21875 120.257812 -352.234375 C 118.15625 -359.542969 116.246094 -366.914062 114.933594 -374.40625 Z M 114.539062 -372.273438 " transform="matrix(0,1,-1,0,0,0.000000000000028422)"/>
<path style="fill:none;stroke-width:1.8;stroke-linecap:butt;stroke-linejoin:miter;stroke:rgb(0%,0%,0%);stroke-opacity:1;stroke-miterlimit:4;" d="M 100.191406 -166.503906 L 100.191406 -54.4375 C 100.191406 -14.03125 116.515625 -19.824219 116.515625 18.292969 L 116.515625 32.292969 " transform="matrix(0,1,-1,0,0,0.000000000000028422)"/>
<path style="fill:none;stroke-width:1.8;stroke-linecap:butt;stroke-linejoin:miter;stroke:rgb(0%,0%,0%);stroke-opacity:1;stroke-miterlimit:4;" d="M 96.992187 -166.503906 L 96.992187 -54.4375 C 96.992187 -14.03125 113.316406 -19.824219 113.316406 18.292969 L 113.316406 32.292969 " transform="matrix(0,1,-1,0,0,0.000000000000028422)"/>
<path style="fill:none;stroke-width:1.44;stroke-linecap:butt;stroke-linejoin:miter;stroke:rgb(50.195312%,50.195312%,50.195312%);stroke-opacity:1;stroke-miterlimit:4;" d="M 193.027344 -233.144531 L 193.027344 -190.285156 " transform="matrix(0,1,-1,0,0,0.000000000000028422)"/>
<path style="fill:none;stroke-width:1.44;stroke-linecap:butt;stroke-linejoin:miter;stroke:rgb(50.195312%,50.195312%,50.195312%);stroke-opacity:1;stroke-miterlimit:4;" d="M 36.230469 -233.144531 L 36.230469 -190.285156 " transform="matrix(0,1,-1,0,0,0.000000000000028422)"/>
<path style="fill:none;stroke-width:1.44;stroke-linecap:butt;stroke-linejoin:miter;stroke:rgb(50.195312%,50.195312%,50.195312%);stroke-opacity:1;stroke-miterlimit:4;" d="M 61.199219 -261.3125 L 96.058594 -261.3125 " transform="matrix(0,1,-1,0,0,0.000000000000028422)"/>
<path style="fill:none;stroke-width:1.44;stroke-linecap:butt;stroke-linejoin:miter;stroke:rgb(50.195312%,50.195312%,50.195312%);stroke-opacity:1;stroke-miterlimit:4;" d="M 102.800781 -166.914062 L 128.230469 -166.914062 " transform="matrix(0,1,-1,0,0,0.000000000000028422)"/>
<path style="fill:none;stroke-width:1.44;stroke-linecap:butt;stroke-linejoin:miter;stroke:rgb(50.195312%,50.195312%,50.195312%);stroke-opacity:1;stroke-miterlimit:4;" d="M 134.800781 -261.3125 L 169.65625 -261.3125 " transform="matrix(0,1,-1,0,0,0.000000000000028422)"/>
<path style="fill:none;stroke-width:1.44;stroke-linecap:butt;stroke-linejoin:miter;stroke:rgb(50.195312%,50.195312%,50.195312%);stroke-opacity:1;stroke-miterlimit:4;" d="M 134.800781 -166.914062 L 169.65625 -166.914062 " transform="matrix(0,1,-1,0,0,0.000000000000028422)"/>
<path style="fill:none;stroke-width:1.44;stroke-linecap:butt;stroke-linejoin:miter;stroke:rgb(50.195312%,50.195312%,50.195312%);stroke-opacity:1;stroke-miterlimit:4;" d="M 60.058594 -166.914062 L 94.914062 -166.914062 " transform="matrix(0,1,-1,0,0,0.000000000000028422)"/>
<path style="fill:none;stroke-width:3.6;stroke-linecap:butt;stroke-linejoin:miter;stroke:rgb(0%,0%,0%);stroke-opacity:1;stroke-miterlimit:4;" d="M 444.660156 128.140625 L 444.660156 40.863281 "/>
<path style=" stroke:none;fill-rule:evenodd;fill:rgb(0%,0%,0%);fill-opacity:1;" d="M 444.660156 55.265625 L 451.859375 62.464844 L 444.660156 37.265625 L 437.457031 62.464844 Z M 444.660156 55.265625 "/>
<g clip-path="url(#clip8)" clip-rule="nonzero">
<path style="fill:none;stroke-width:1.8;stroke-linecap:butt;stroke-linejoin:miter;stroke:rgb(0%,0%,0%);stroke-opacity:1;stroke-miterlimit:4;" d="M 55.265625 -444.660156 L 62.464844 -451.859375 L 37.265625 -444.660156 L 62.464844 -437.457031 Z M 55.265625 -444.660156 " transform="matrix(0,1,-1,0,0,0)"/>
</g>
<path style=" stroke:none;fill-rule:nonzero;fill:rgb(0%,0%,0%);fill-opacity:1;" d="M 448.828125 30.335938 C 447.921875 28.128906 447.066406 26.125 446.265625 24.320312 C 445.472656 22.519531 444.707031 20.832031 443.96875 19.257812 C 443.238281 17.6875 442.507812 16.203125 441.78125 14.804688 C 441.0625 13.398438 440.332031 11.988281 439.59375 10.570312 L 439.59375 30.335938 L 436.59375 30.335938 L 436.59375 5.570312 L 439.953125 5.570312 C 441.046875 7.570312 442 9.320312 442.8125 10.820312 C 443.625 12.3125 444.367188 13.757812 445.046875 15.164062 C 445.734375 16.5625 446.394531 18 447.03125 19.476562 C 447.664062 20.957031 448.382812 22.671875 449.1875 24.617188 L 449.1875 5.570312 L 452.1875 5.570312 L 452.1875 30.335938 Z M 448.828125 30.335938 "/>
<path style=" stroke:none;fill-rule:nonzero;fill:rgb(100%,0%,0%);fill-opacity:1;" d="M 267.136719 41.988281 C 269.148438 41.988281 270.773438 43.613281 270.773438 45.625 C 270.773438 47.632812 269.148438 49.257812 267.136719 49.257812 C 265.128906 49.257812 263.503906 47.632812 263.503906 45.625 C 263.503906 43.613281 265.128906 41.988281 267.136719 41.988281 Z M 267.136719 41.988281 "/>
<path style=" stroke:none;fill-rule:nonzero;fill:rgb(100%,100%,0%);fill-opacity:1;" d="M 276.738281 41.988281 C 278.746094 41.988281 280.375 43.613281 280.375 45.625 C 280.375 47.632812 278.746094 49.257812 276.738281 49.257812 C 274.730469 49.257812 273.101562 47.632812 273.101562 45.625 C 273.101562 43.613281 274.730469 41.988281 276.738281 41.988281 Z M 276.738281 41.988281 "/>
<path style=" stroke:none;fill-rule:nonzero;fill:rgb(0%,50.195312%,0%);fill-opacity:1;" d="M 286.339844 41.988281 C 288.347656 41.988281 289.976562 43.613281 289.976562 45.625 C 289.976562 47.632812 288.347656 49.257812 286.339844 49.257812 C 284.332031 49.257812 282.703125 47.632812 282.703125 45.625 C 282.703125 43.613281 284.332031 41.988281 286.339844 41.988281 Z M 286.339844 41.988281 "/>
<path style="fill:none;stroke-width:1.08;stroke-linecap:butt;stroke-linejoin:miter;stroke:rgb(0%,0%,0%);stroke-opacity:1;stroke-miterlimit:4;" d="M -39.242188 261.695312 L -52.097656 261.695312 L -52.097656 292.550781 L -39.242188 292.550781 Z M -39.242188 261.695312 " transform="matrix(0,-1,1,0,0,0)"/>
<path style=" stroke:none;fill-rule:nonzero;fill:rgb(100%,0%,0%);fill-opacity:1;" d="M 251.78125 198.371094 C 251.78125 200.378906 250.152344 202.007812 248.144531 202.007812 C 246.136719 202.007812 244.507812 200.378906 244.507812 198.371094 C 244.507812 196.363281 246.136719 194.734375 248.144531 194.734375 C 250.152344 194.734375 251.78125 196.363281 251.78125 198.371094 Z M 251.78125 198.371094 "/>
<path style=" stroke:none;fill-rule:nonzero;fill:rgb(100%,100%,0%);fill-opacity:1;" d="M 251.78125 207.972656 C 251.78125 209.980469 250.152344 211.609375 248.144531 211.609375 C 246.136719 211.609375 244.507812 209.980469 244.507812 207.972656 C 244.507812 205.964844 246.136719 204.335938 248.144531 204.335938 C 250.152344 204.335938 251.78125 205.964844 251.78125 207.972656 Z M 251.78125 207.972656 "/>
<path style=" stroke:none;fill-rule:nonzero;fill:rgb(0%,50.195312%,0%);fill-opacity:1;" d="M 251.78125 217.570312 C 251.78125 219.578125 250.152344 221.207031 248.144531 221.207031 C 246.136719 221.207031 244.507812 219.578125 244.507812 217.570312 C 244.507812 215.5625 246.136719 213.933594 248.144531 213.933594 C 250.152344 213.933594 251.78125 215.5625 251.78125 217.570312 Z M 251.78125 217.570312 "/>
<path style="fill:none;stroke-width:1.08;stroke-linecap:butt;stroke-linejoin:miter;stroke:rgb(0%,0%,0%);stroke-opacity:1;stroke-miterlimit:4;" d="M 241.671875 192.925781 L 254.527344 192.925781 L 254.527344 223.785156 L 241.671875 223.785156 Z M 241.671875 192.925781 "/>
<path style="fill:none;stroke-width:1.08;stroke-linecap:butt;stroke-linejoin:miter;stroke:rgb(0%,0%,0%);stroke-opacity:1;stroke-miterlimit:4;" d="M 177.144531 -136.042969 L 197.820312 -136.042969 L 197.820312 -166.902344 L 177.144531 -166.902344 Z M 177.144531 -136.042969 " transform="matrix(0,1,-1,0,0,0)"/>
<path style=" stroke:none;fill-rule:nonzero;fill:rgb(100%,0%,0%);fill-opacity:1;" d="M 161.085938 191.117188 C 159.078125 191.117188 157.449219 189.492188 157.449219 187.484375 C 157.449219 185.472656 159.078125 183.847656 161.085938 183.847656 C 163.09375 183.847656 164.722656 185.472656 164.722656 187.484375 C 164.722656 189.492188 163.09375 191.117188 161.085938 191.117188 Z M 161.085938 191.117188 "/>
<path style=" stroke:none;fill-rule:nonzero;fill:rgb(100%,100%,0%);fill-opacity:1;" d="M 151.488281 196.0625 C 149.480469 196.0625 147.851562 194.433594 147.851562 192.425781 C 147.851562 190.417969 149.480469 188.789062 151.488281 188.789062 C 153.496094 188.789062 155.125 190.417969 155.125 192.425781 C 155.125 194.433594 153.496094 196.0625 151.488281 196.0625 Z M 151.488281 196.0625 "/>
<path style=" stroke:none;fill-rule:nonzero;fill:rgb(0%,50.195312%,0%);fill-opacity:1;" d="M 141.886719 196.0625 C 139.878906 196.0625 138.25 194.433594 138.25 192.425781 C 138.25 190.417969 139.878906 188.789062 141.886719 188.789062 C 143.894531 188.789062 145.523438 190.417969 145.523438 192.425781 C 145.523438 194.433594 143.894531 196.0625 141.886719 196.0625 Z M 141.886719 196.0625 "/>
<path style=" stroke:none;fill-rule:nonzero;fill:rgb(0%,0%,0%);fill-opacity:1;" d="M 151.488281 186.460938 C 149.480469 186.460938 147.851562 184.832031 147.851562 182.824219 C 147.851562 180.816406 149.480469 179.1875 151.488281 179.1875 C 153.496094 179.1875 155.125 180.816406 155.125 182.824219 C 155.125 184.832031 153.496094 186.460938 151.488281 186.460938 Z M 151.488281 186.460938 "/>
<path style=" stroke:none;fill-rule:nonzero;fill:rgb(0%,0%,0%);fill-opacity:1;" d="M 141.886719 186.460938 C 139.878906 186.460938 138.25 184.832031 138.25 182.824219 C 138.25 180.816406 139.878906 179.1875 141.886719 179.1875 C 143.894531 179.1875 145.523438 180.816406 145.523438 182.824219 C 145.523438 184.832031 143.894531 186.460938 141.886719 186.460938 Z M 141.886719 186.460938 "/>
<path style="fill:none;stroke-width:1.08;stroke-linecap:butt;stroke-linejoin:bevel;stroke:rgb(100%,100%,0%);stroke-opacity:1;stroke-miterlimit:4;" d="M 186.40625 -151.390625 L 179.285156 -151.390625 L 182.582031 -154.683594 L 179.324219 -151.425781 L 182.621094 -148.207031 " transform="matrix(0,1,-1,0,0,0)"/>
<path style="fill:none;stroke-width:1.08;stroke-linecap:butt;stroke-linejoin:bevel;stroke:rgb(0%,100%,0%);stroke-opacity:1;stroke-miterlimit:4;" d="M 186.40625 -141.789062 L 179.285156 -141.789062 L 182.582031 -145.085938 L 179.324219 -141.828125 L 182.621094 -138.609375 " transform="matrix(0,1,-1,0,0,0)"/>
</g>
</svg>
